<?xml version="1.0" encoding="utf-8"?>
<!DOCTYPE svg PUBLIC "-//W3C//DTD SVG 1.1//EN" "http://www.w3.org/Graphics/SVG/1.1/DTD/svg11.dtd">

<svg xmlns="http://www.w3.org/2000/svg" xmlns:xlink="http://www.w3.org/1999/xlink" t="1648349361251" class="icon" viewBox="0 0 1024 1024" version="1.1" p-id="28454" width="32" height="32">
  <defs>
    <style type="text/css">@font-face { font-family: feedback-iconfont; src: url("//at.alicdn.com/t/font_1031158_u69w8yhxdu.woff2?t=1630033759944") format("woff2"), url("//at.alicdn.com/t/font_1031158_u69w8yhxdu.woff?t=1630033759944") format("woff"), url("//at.alicdn.com/t/font_1031158_u69w8yhxdu.ttf?t=1630033759944") format("truetype"); }</style>
  </defs>
  <path d="M914.944 138.45504l-382.26944 240.24576A117.49376 117.49376 0 0 0 477.61408 478.1568v381.1328l97.18272 55.296 41.6512-24.19712V444.416l303.69792-231.63392z" fill="#F4CA1C" p-id="28455"/>
  <path d="M588.544 952.32a74.24 74.24 0 0 1-35.25632-8.98048l-151.94624-81.97632a73.63072 73.63072 0 0 1-38.77376-64.83968V467.15904a4.608 4.608 0 0 0-1.40288-3.31264L107.6992 271.50336A112.85504 112.85504 0 0 1 180.03968 71.68h669.04576a112.86016 112.86016 0 0 1 72.3456 199.81824l-1.12128 0.88576-256.39936 194.80576a4.608 4.608 0 0 0-1.40288 3.31264v407.99232a73.088 73.088 0 0 1-36.11648 63.34464A74.01984 74.01984 0 0 1 588.544 952.32zM151.49056 217.90208l253.67552 192.512a73.40544 73.40544 0 0 1 26.75712 56.75008v329.36448a4.608 4.608 0 0 0 2.43712 4.06528l151.94112 81.96608a4.6336 4.6336 0 0 0 6.85568-4.06016V470.5024a73.41056 73.41056 0 0 1 26.75712-56.7552l1.11104-0.88064 256.60928-194.95936a43.79136 43.79136 0 0 0-28.54912-77.1072H180.03968a43.78112 43.78112 0 0 0-28.54912 77.10208z m747.80672 27.00288z" fill="#343434" p-id="28456"/>
</svg>
